<svg xmlns="http://www.w3.org/2000/svg" viewBox="0 0 300 300"><defs><style>.cls-1{fill:#1f63aa;}</style></defs><title>anchor</title><g id="Layer_2" data-name="Layer 2"><path class="cls-1" d="M250.49,221.21,240,165l-32.93,46.73,10.5-2c-12.73,21-33.77,35-57.58,38.12V117.73h44v-20H160V85.62a28,28,0,1,0-20,0V97.73H96v20h44V247.87c-23.81-3.09-44.85-17.08-57.58-38.12l10.5,2L60,165,49.51,221.21l11.8-8.36c17.12,34.12,51,55.68,88.7,55.68s71.58-21.56,88.7-55.68ZM150,51.47a8,8,0,1,1-8,8A8,8,0,0,1,150,51.47Z"/></g></svg>