<svg xmlns="http://www.w3.org/2000/svg" viewBox="0 0 1598 599"><defs><style>.cls-1{fill:none;}.cls-2{fill:#e9dbd3;}.cls-3{fill:#ccc;}.cls-4{fill:#d33d61;}.cls-5,.cls-6{fill:#fff;}.cls-6{stroke:#681c1e;stroke-miterlimit:10;stroke-width:2px;}.cls-7{fill:#681c1e;}</style></defs><title>Artboard 7</title><g id="Layer_1" data-name="Layer 1"><rect class="cls-1" x="500" y="209" width="93" height="90.5"/><rect class="cls-2" x="406" y="353" width="22" height="22"/><rect class="cls-3" x="763" y="272" width="22" height="22"/><rect class="cls-2" x="406" y="326" width="22" height="22"/><rect class="cls-2" x="406" y="384" width="22" height="40"/><rect class="cls-2" x="406" y="440" width="22" height="40"/><rect class="cls-2" x="438" y="326" width="38" height="22"/><rect class="cls-2" x="438" y="353" width="38" height="22"/><rect class="cls-2" x="438" y="440" width="38" height="40"/><rect class="cls-3" x="755" y="263" width="38" height="40"/><rect class="cls-2" x="438" y="384" width="38" height="40"/><rect class="cls-3" x="500" y="326" width="93" height="92"/><rect class="cls-2" x="276" y="384" width="95" height="96"/><rect class="cls-2" x="276" y="326" width="43" height="38"/><rect class="cls-2" x="335" y="326" width="40" height="38"/><rect class="cls-3" x="500" y="209" width="93" height="90.5"/><rect class="cls-2" x="276" y="209" width="95" height="101"/><rect class="cls-2" x="392" y="272" width="39" height="38"/><rect class="cls-2" x="449" y="263" width="36" height="47"/><rect class="cls-3" x="615" y="263" width="40" height="47"/><rect class="cls-3" x="667" y="272" width="38" height="38"/><rect class="cls-3" x="615" y="326" width="40" height="22"/><rect class="cls-3" x="615" y="353" width="40" height="11"/><rect class="cls-3" x="667" y="330" width="38" height="34"/><rect class="cls-2" x="392" y="209" width="19.5" height="19"/><rect class="cls-2" x="392" y="234" width="36" height="16"/><rect class="cls-2" x="449" y="209" width="36" height="19"/><rect class="cls-2" x="449" y="234" width="36" height="20.25"/><rect class="cls-3" x="615" y="209" width="35" height="19"/><rect class="cls-3" x="615" y="234" width="35" height="20.25"/><rect class="cls-3" x="667" y="209" width="38" height="19"/><rect class="cls-3" x="667" y="234" width="38" height="20.25"/><rect class="cls-3" x="615" y="384" width="90" height="34"/><rect class="cls-3" x="516" y="440" width="41" height="40"/><rect class="cls-3" x="628" y="440" width="39" height="40"/><rect class="cls-3" x="573" y="480" width="42" height="36"/><rect class="cls-3" x="500" y="526" width="36.5" height="19"/><rect class="cls-3" x="557" y="526" width="37" height="19"/><rect class="cls-2" x="217" y="440" width="41" height="40"/><rect class="cls-2" x="217" y="326" width="41" height="19"/><rect class="cls-2" x="217" y="283" width="41" height="20"/><rect class="cls-2" x="213" y="209" width="45" height="19"/><rect class="cls-2" x="411.5" y="209" width="16.5" height="19"/><rect class="cls-2" x="217" y="234" width="41" height="16"/><rect class="cls-2" x="213" y="384" width="22.5" height="20"/><rect class="cls-2" x="235.5" y="384" width="22.5" height="20"/><rect class="cls-2" x="213" y="411" width="22.5" height="21"/><rect class="cls-2" x="235.5" y="411" width="22.5" height="21"/><rect class="cls-1" x="950" y="208" width="90.5" height="93"/><rect class="cls-3" x="1125" y="565.5" width="20" height="22.5"/><rect class="cls-3" x="1152" y="565.5" width="21" height="22.5"/><rect class="cls-2" x="950" y="208" width="90.5" height="93"/><rect class="cls-2" x="1067" y="208" width="92" height="93"/><rect class="cls-2" x="1004" y="146" width="47" height="40"/><rect class="cls-2" x="1013" y="96" width="38" height="38"/><rect class="cls-2" x="1067" y="146" width="22" height="40"/><rect class="cls-2" x="1094" y="146" width="11" height="40"/><rect class="cls-2" x="1071" y="96" width="34" height="38"/><rect class="cls-2" x="950" y="151" width="19" height="35"/><rect class="cls-2" x="975" y="151" width="20.25" height="35"/><rect class="cls-2" x="950" y="96" width="19" height="38"/><rect class="cls-2" x="975" y="96" width="20.25" height="38"/><rect class="cls-2" x="1125" y="96" width="34" height="90"/><rect class="cls-2" x="1181" y="134" width="40" height="39"/><rect class="cls-2" x="1181" y="244" width="40" height="41"/><rect class="cls-2" x="1221" y="186" width="36" height="42"/><rect class="cls-2" x="1239" y="259.5" width="19" height="36.5"/><rect class="cls-2" x="1267" y="207" width="19" height="37"/><rect class="cls-2" x="1094" y="373" width="22" height="22"/><rect class="cls-2" x="1067" y="373" width="22" height="22"/><rect class="cls-2" x="1125" y="373" width="40" height="22"/><rect class="cls-2" x="1181" y="373" width="40" height="22"/><rect class="cls-2" x="1067" y="325" width="22" height="38"/><rect class="cls-2" x="1094" y="325" width="22" height="38"/><rect class="cls-2" x="1181" y="325" width="40" height="38"/><rect class="cls-2" x="1125" y="325" width="40" height="38"/><rect class="cls-2" x="1013" y="370" width="38" height="39"/><rect class="cls-2" x="1004" y="316" width="47" height="36"/><rect class="cls-2" x="950" y="389.5" width="19" height="19.5"/><rect class="cls-2" x="975" y="373" width="16" height="36"/><rect class="cls-2" x="950" y="316" width="19" height="36"/><rect class="cls-2" x="975" y="316" width="20.25" height="36"/><rect class="cls-2" x="950" y="373" width="19" height="16.5"/><rect class="cls-2" x="1125" y="430" width="96" height="95"/><rect class="cls-2" x="1067" y="482" width="38" height="43"/><rect class="cls-2" x="1067" y="426" width="38" height="40"/><rect class="cls-2" x="950" y="430" width="101" height="95"/><rect class="cls-2" x="1181" y="543" width="40" height="41"/><rect class="cls-2" x="1067" y="543" width="19" height="41"/><rect class="cls-2" x="1024" y="543" width="20" height="41"/><rect class="cls-2" x="950" y="543" width="19" height="45"/><rect class="cls-2" x="975" y="543" width="16" height="41"/><rect class="cls-2" x="1125" y="543" width="20" height="22.5"/><rect class="cls-2" x="1152" y="543" width="21" height="22.5"/><circle class="cls-4" cx="390" cy="373" r="10.13"/></g><g id="Layer_2" data-name="Layer 2"><rect class="cls-5" x="1435.25" y="106.5" width="31.02" height="6.13"/><path class="cls-6" d="M1465.25,105.51l-30.75.16m30.79,7.84-30.75.16"/><rect class="cls-6" x="1465.46" y="99.45" width="20" height="20" transform="translate(-0.56 7.78) rotate(-0.3)"/><rect class="cls-7" x="1470.46" y="104.45" width="10" height="10" transform="translate(-0.56 7.78) rotate(-0.3)"/><rect class="cls-5" x="1486" y="105.39" width="51.05" height="7.24"/><line class="cls-6" x1="1537.05" y1="105.13" x2="1484.62" y2="105.4"/><line class="cls-6" x1="1537.09" y1="113.13" x2="1484.66" y2="113.4"/></g></svg>