<svg id="Layer_1" data-name="Layer 1" xmlns="http://www.w3.org/2000/svg" viewBox="0 0 300 300"><defs><style>.cls-1{fill:#1f63aa;}</style></defs><title>Artboard 25</title><polygon class="cls-1" points="141.85 176.83 158.43 176.83 150.15 158.83 141.85 176.83"/><path class="cls-1" d="M0-.13v300H300V-.13ZM66.39,210.68a13.74,13.74,0,1,1-24.85,2.44,13.71,13.71,0,1,1,14.54-20.29,13.37,13.37,0,0,1,1.32,3.2l19.31-11.15a80.72,80.72,0,0,0,6.87,11.91L64.28,207.93A13.43,13.43,0,0,1,66.39,210.68ZM76.83,116.2,57.06,104.79a13.43,13.43,0,0,1-1,2.13,13.74,13.74,0,1,1-14.54-20.3A13.72,13.72,0,1,1,66.4,89.07a13.35,13.35,0,0,1-2.95,3.53l20.29,11.71A80.82,80.82,0,0,0,76.83,116.2ZM200,182.83H184.19v18h-68.4v-18H100A57.67,57.67,0,0,1,89.83,145.2c2.25-28.81,25.66-51.44,54.44-54,35.9-3.23,66.08,24.26,66.08,58.63A57.64,57.64,0,0,1,200,182.83ZM233.6,89.07a13.74,13.74,0,1,1,24.85-2.45,13.72,13.72,0,1,1-14.54,20.3,13.44,13.44,0,0,1-1-2.13L223.17,116.2a80.82,80.82,0,0,0-6.91-11.88L236.55,92.6A13.33,13.33,0,0,1,233.6,89.07Zm34.1,117.49a13.66,13.66,0,0,1-9.25,6.56,13.72,13.72,0,1,1-24.85-2.44,13.4,13.4,0,0,1,2.12-2.75l-19.31-11.15a80.72,80.72,0,0,0,6.87-11.91L242.59,196a13.33,13.33,0,0,1,1.32-3.2,13.74,13.74,0,1,1,23.79,13.73Z"/><path class="cls-1" d="M129.14,125.25a12,12,0,1,0,12,12A12,12,0,0,0,129.14,125.25Z"/><path class="cls-1" d="M171.14,125.25a12,12,0,1,0,12,12A12,12,0,0,0,171.14,125.25Z"/></svg>