<svg xmlns="http://www.w3.org/2000/svg" xmlns:xlink="http://www.w3.org/1999/xlink" viewBox="0 0 300 300"><defs><style>.cls-1,.cls-7{fill:none;}.cls-2,.cls-8{fill:#fff;}.cls-3{fill:#e8dad2;}.cls-11,.cls-4,.cls-9{fill:#681c1e;}.cls-4{fill-rule:evenodd;}.cls-5{font-size:16px;fill:#fb1806;}.cls-5,.cls-6{font-family:Courier-Bold, Courier;font-weight:700;}.cls-6{font-size:12px;fill:#f08171;}.cls-10,.cls-7,.cls-8,.cls-9{stroke:#681c1e;stroke-miterlimit:10;stroke-width:2px;}.cls-10{fill:url(#New_Pattern_Swatch_7);}</style><pattern id="New_Pattern_Swatch_7" data-name="New Pattern Swatch 7" width="200" height="170.05" patternTransform="translate(72.75 -32.78) scale(0.33)" patternUnits="userSpaceOnUse" viewBox="0 0 200 170.05"><rect class="cls-1" width="200" height="170.05"/><rect class="cls-2" width="200" height="170.04"/><rect class="cls-3" x="0.11" width="199.89" height="9.16"/><rect class="cls-3" y="17.88" width="199.89" height="9.16"/><rect class="cls-3" y="35.75" width="199.89" height="9.16"/><rect class="cls-3" y="53.63" width="199.89" height="9.16"/><rect class="cls-3" y="71.51" width="199.89" height="9.16"/><rect class="cls-3" y="89.38" width="199.89" height="9.16"/><rect class="cls-3" y="107.26" width="199.89" height="9.16"/><rect class="cls-3" y="125.14" width="199.89" height="9.16"/><rect class="cls-3" y="143.01" width="199.89" height="9.16"/><rect class="cls-3" y="160.89" width="199.89" height="9.16"/></pattern></defs><title>Artboard 16</title><g id="Layer_2" data-name="Layer 2"><path class="cls-4" d="M20,83.62c6.17-2.65,12.16-5.86,18.53-7.84C57.28,69.95,76.26,64.85,95,59c10-3.15,19.73-7.42,29.64-11,2.24-.81,4.89-1.52,7.13-1.1a98.42,98.42,0,0,0,37.65-.45,7.48,7.48,0,0,1,4.22.1c25,11.25,51.79,17.08,77.54,26,9,3.12,17.68,7.1,26.41,10.92,1.16.51,2.59,2.6,2.4,3.69-3,17-8.57,32.92-19.61,46.52-.46.57-.84,1.2-1.37,2-11.65-6-23.44-10.08-37.14-10.46V251.52c-48,9.56-95.09,6.83-142.73-.33V125.58c-13.87-.33-25.52,5.35-37.61,10.19-6.84-8.49-11.48-18.09-15.14-28.16C23.93,100.91,22.1,94,20,87.14Zm98.77-28.68-37,11.55c.82,3.07,1.6,5.9,2.34,8.74,3.3,12.68,4.72,25.41.74,38.23-.95,3.05-2.81,6.08-2.81,9.13,0,38.79.3,77.59.53,116.38,0,1.12.19,2.24.29,3.26,36.52,8.44,106,8.2,135.28-.46.08-1.07.22-2.22.23-3.37q.41-56.43.72-112.86a20.33,20.33,0,0,0-1.57-7.2c-3.45-8.93-5.13-18.12-3.63-27.61,1.29-8.21,3.15-16.33,4.79-24.68L181.42,53.7c-6.4,14.5-15.53,25.43-32.87,24.74C133.22,77.82,123.91,68.89,118.77,54.94ZM79.94,66.52c-3.18.79-5.93,1.27-8.54,2.15-13.3,4.47-26.59,9-39.8,13.7C30.47,82.77,29,85,29.22,86c3.21,14.27,8.34,27.72,17.25,39.55,2,2.6,3.65,3.09,6.93,2.16,7.83-2.22,15.91-3.57,23.82-5.53a6.11,6.11,0,0,0,3.58-3C89,101.72,85.42,84.38,79.94,66.52Zm172.4,60.85c9.83-11.28,15.61-25.71,19-41.22.18-.84-1.11-2.57-2.1-3-5.64-2.46-11.32-4.91-17.14-6.87-10.24-3.46-20.6-6.58-31.25-10-1.13,4.08-2.17,7.56-3.06,11.08-3.53,14-4.43,27.85,1.8,41.34a6.46,6.46,0,0,0,4,3.05C232.9,123.77,242.24,125.45,252.34,127.37ZM82.73,248.61c8.27,1,16.13,1.88,24,2.83,36.05,4.35,72,4.4,107.92-1.76,3.84-.66,4.18-2.23,3.16-5.94C173,253.23,128,251,83.13,244.4c-.08,0-.19.2-.4.43ZM127.23,50.7c-7.61,2.45-7.85,3-4.34,9.63a29.67,29.67,0,0,0,3.32,5.17c8.07,9.69,18.42,13.35,30.68,10.62,10.5-2.34,21-13.8,22.36-23.81l-5.17-2.15c-4.38,14.62-11.7,21-23.3,20.49C138,70.08,129.8,63.22,127.23,50.7ZM170,57c-6.89.71-13.15,1.77-19.42,1.88s-12.72-.73-19.27-1.16c4.44,8.41,12,11.34,20.81,11.32C160.28,69,166.25,65,170,57ZM129.3,50.27c.3,4.73.3,4.73,4.17,5.57,11.22,2.44,22.37,1.61,33.6-.28,4.06-.69,5.19-2.32,4.56-5.85-7.21.72-14.16,1.89-21.12,2S136.58,50.8,129.3,50.27Zm145,34.14c-3.05,8.85-5.13,16.69-8.45,24s-7.86,14-12,21.13l3.86,1.89c.79-.9,1.51-1.62,2.12-2.43,9-12,13.8-25.73,16.53-40.28C276.57,87.62,275.24,86.28,274.29,84.41Zm-247.13.48-1.78-.39c-.39,1.42-1.39,3-1.07,4.22,1.84,6.91,3.48,14,6.2,20.53,3.2,7.77,7.43,15.12,11.31,22.85l5.92-2.51C36.58,116.28,30.88,101,27.16,84.89Z"/><text class="cls-5" transform="translate(126 104.24)">think</text><text class="cls-6" transform="translate(113.99 212.96)">secret map</text><path class="cls-7" d="M169.21,148.73c0,17.17-14.3,19.27-24.8,19.27s-13.24-7.33-13.24-24.51,7.59-27,18.09-27S169.21,131.56,169.21,148.73Z"/><path class="cls-8" d="M173.13,190.57V174.31a10.68,10.68,0,0,0-1.08-4.67,12.11,12.11,0,0,0-2.94-3.81,14,14,0,0,0-4.36-2.57,15.39,15.39,0,0,0-5.34-.94h-4.65v-3.2h-9.3v3.2h-4.65a15.4,15.4,0,0,0-5.34.94,14,14,0,0,0-4.36,2.57,12.08,12.08,0,0,0-2.94,3.81,10.68,10.68,0,0,0-1.08,4.67v16.25Z"/><polyline class="cls-8" points="154.75 162.47 154.75 162.57 154.75 159.27 145.46 159.27 145.46 162.57 145.46 162.47"/><ellipse class="cls-8" cx="150.19" cy="140.61" rx="14.97" ry="19.65"/><path class="cls-8" d="M137.69,166.91c0-21.74,6.78-39.36,15.15-39.36l.12.33c0,6.82,6.51,8.11,14.37,8.11,0,0-2.43-10.13-4.26-12.42a19.22,19.22,0,0,0-6.36-5.24,16.75,16.75,0,0,0-7.55-1.8,15.08,15.08,0,0,0-7.26,1.8,16.78,16.78,0,0,0-5.73,5.24,26.43,26.43,0,0,0-3.76,8.46,45.23,45.23,0,0,0-1.35,11.45,84.47,84.47,0,0,0,.59,11.07,24.41,24.41,0,0,0,2.09,7.62,9.84,9.84,0,0,0,4.06,4.4"/><path class="cls-9" d="M166.1,131s-2.31-7.52-4.06-9.22a18.07,18.07,0,0,0-6.05-3.89,19.68,19.68,0,0,0-7.18-1.33,17.65,17.65,0,0,0-6.91,1.33,15.23,15.23,0,0,0-5.45,3.89,17.87,17.87,0,0,0-3.57,6.28,26.6,26.6,0,0,0-1.28,8.5"/><ellipse class="cls-9" cx="123.94" cy="137.27" rx="10.08" ry="0.94" transform="translate(-26.41 29.58) rotate(-12.31)"/><ellipse class="cls-9" cx="123.94" cy="133.42" rx="0.94" ry="10.08" transform="translate(-29.16 232.03) rotate(-79.89)"/><path class="cls-10" d="M145.56,162.72c0,2,2.07,3.66,4.63,3.66s4.63-1.64,4.63-3.66l0-.14h4.65a15.4,15.4,0,0,1,5.34.94,14,14,0,0,1,4.36,2.57,12.06,12.06,0,0,1,2.94,3.81,10.67,10.67,0,0,1,1.08,4.67v16.25h-46V174.57a10.68,10.68,0,0,1,1.08-4.67,12.08,12.08,0,0,1,2.94-3.81,14,14,0,0,1,4.36-2.57,15.4,15.4,0,0,1,5.34-.94h4.65"/><circle class="cls-9" cx="130.47" cy="135.18" r="2.31"/><line class="cls-7" x1="144.37" y1="162.57" x2="145.76" y2="162.57"/><rect class="cls-2" x="123.62" y="189.71" width="54.38" height="3.23"/><circle class="cls-11" cx="144.87" cy="140.94" r="1.65"/><circle class="cls-11" cx="155.51" cy="140.94" r="1.65"/><path class="cls-2" d="M150.67,123.57l.52-.43a.56.56,0,0,0,.07.12.57.57,0,1,0,.46-.93h0a.57.57,0,1,0-1,.27l.11.1-.52.43A3.26,3.26,0,0,1,150.67,123.57Z"/><path class="cls-2" d="M152.71,126.19a.57.57,0,0,0-.73.33.51.51,0,0,0,0,.14l-.8-.3a3.38,3.38,0,0,1-.2.53l.8.3a.57.57,0,1,0,1,.06h0a.56.56,0,0,0,.33-.33A.57.57,0,0,0,152.71,126.19Z"/><path class="cls-2" d="M144.17,123.6a.57.57,0,1,0-1,.07.57.57,0,0,0,0,1.06.57.57,0,0,0,.73-.33.66.66,0,0,0,0-.14l.8.3a3.38,3.38,0,0,1,.2-.53l-.8-.3A.54.54,0,0,0,144.17,123.6Z"/><path class="cls-2" d="M145.17,127.36l-.81.66a.51.51,0,0,0-.07-.12.57.57,0,1,0-.88.72.56.56,0,0,1,.54.66.57.57,0,0,0,.88-.72l-.11-.1.8-.66A3.26,3.26,0,0,1,145.17,127.36Z"/><path class="cls-2" d="M147.54,123.18a2.48,2.48,0,0,0-1.39,4.16l.64-.11.12.75,2.77-.46-.12-.75.64-.11a2.48,2.48,0,0,0-2.66-3.48Zm-.45,2.59a.5.5,0,1,1,.41-.57A.5.5,0,0,1,147.09,125.77Zm.7,1L148,126l.46.68Zm1-1.3a.5.5,0,1,1,.41-.57A.5.5,0,0,1,148.81,125.48Z"/><path class="cls-8" d="M152,151.13a1.86,1.86,0,0,1-3.64,0"/><path class="cls-7" d="M164.83,138.68h0a2.54,2.54,0,0,1,2.54,2.54V142a2.54,2.54,0,0,1-2.54,2.54"/><path class="cls-7" d="M165.43,144.6c0,1.14.3,2.07.66,2.07s.66-.93.66-2.07-.3-2.07-.66-2.07"/><line class="cls-7" x1="164.04" y1="170.1" x2="164.04" y2="190.02"/><line class="cls-7" x1="136.17" y1="170.1" x2="136.17" y2="190.02"/><path class="cls-7" d="M157.58,162.6c0,5.86-3.33,10.62-7.43,10.62s-7.43-4.75-7.43-10.62"/><circle class="cls-11" cx="150.21" cy="173.22" r="1.16"/><circle class="cls-11" cx="153.93" cy="171.57" r="0.99"/><circle class="cls-11" cx="156.58" cy="168.43" r="0.99"/><circle class="cls-11" cx="146.38" cy="171.76" r="0.99"/><circle class="cls-11" cx="144.04" cy="168.45" r="0.99"/><circle class="cls-11" cx="157.58" cy="164.37" r="0.99"/><circle class="cls-11" cx="142.72" cy="164.37" r="0.99"/><path class="cls-7" d="M152,186.63a3.2,3.2,0,0,1-2.93,0"/><polygon class="cls-11" points="148.9 186.44 151.24 187.01 152.46 189.1 153.83 183.55 148.9 186.44"/><polygon class="cls-11" points="152.14 186.44 149.8 187.01 148.58 189.1 147.21 183.55 152.14 186.44"/><line class="cls-7" x1="150.52" y1="180.21" x2="150.52" y2="186.83"/><circle class="cls-7" cx="150.52" cy="179.67" r="0.66"/><line class="cls-7" x1="148.54" y1="181.44" x2="152.5" y2="181.44"/></g></svg>