<svg id="Layer_1" data-name="Layer 1" xmlns="http://www.w3.org/2000/svg" viewBox="0 0 300 300"><defs><style>.cls-1{fill:#d92c64;}</style></defs><title>Artboard 24</title><path class="cls-1" d="M144.27,90.61c-28.78,2.59-52.2,25.22-54.44,54A57.67,57.67,0,0,0,100,182.28h15.76v18h68.4v-18H200a57.64,57.64,0,0,0,10.4-33C210.35,114.87,180.17,87.39,144.27,90.61Zm-15.13,58.07a12,12,0,1,1,12-12A12,12,0,0,1,129.14,148.69Zm12.7,27.59,8.3-18,8.29,18Zm29.3-27.59a12,12,0,1,1,12-12A12,12,0,0,1,171.14,148.69Z"/><path class="cls-1" d="M223.17,115.64l19.76-11.41a13.39,13.39,0,0,0,1,2.13,13.74,13.74,0,1,0,14.54-20.3,13.72,13.72,0,1,0-24.85,2.45A13.34,13.34,0,0,0,236.55,92l-20.29,11.71A80.74,80.74,0,0,1,223.17,115.64Z"/><path class="cls-1" d="M66.4,88.52a13.74,13.74,0,1,0-24.85-2.45,13.72,13.72,0,1,0,14.54,20.3,13.39,13.39,0,0,0,1-2.13l19.76,11.41a80.78,80.78,0,0,1,6.91-11.88L63.45,92A13.35,13.35,0,0,0,66.4,88.52Z"/><path class="cls-1" d="M262.67,187.24a13.73,13.73,0,0,0-18.76,5,13.35,13.35,0,0,0-1.32,3.2l-19.32-11.15a80.72,80.72,0,0,1-6.87,11.91l19.31,11.15a13.41,13.41,0,0,0-2.12,2.75,13.74,13.74,0,1,0,24.85,2.44,13.69,13.69,0,0,0,4.22-25.32Z"/><path class="cls-1" d="M76.72,184.32,57.41,195.47a13.37,13.37,0,0,0-1.32-3.2,13.74,13.74,0,1,0-14.54,20.29,13.72,13.72,0,1,0,24.85-2.44,13.43,13.43,0,0,0-2.12-2.75l19.31-11.15A80.76,80.76,0,0,1,76.72,184.32Z"/></svg>