<svg xmlns="http://www.w3.org/2000/svg" viewBox="0 0 300 300"><defs><style>.cls-1,.cls-5{fill:#681c1e;}.cls-1{fill-rule:evenodd;}.cls-2{fill:none;}.cls-2,.cls-4{stroke:#681c1e;stroke-miterlimit:10;stroke-width:2px;}.cls-3{fill:#e9dbd3;}.cls-4,.cls-6{fill:#fff;}.cls-7{font-size:16px;fill:#fb1806;}.cls-7,.cls-8{font-family:Courier-Bold, Courier;font-weight:700;}.cls-8{font-size:12px;fill:#f08171;}</style></defs><title>Artboard 15</title><g id="Layer_2" data-name="Layer 2"><path class="cls-1" d="M20,91.65c6.17-2.65,12.16-5.86,18.53-7.84C57.28,78,76.26,72.89,95,67c10-3.15,19.73-7.42,29.64-11,2.24-.81,4.89-1.52,7.13-1.1a98.42,98.42,0,0,0,37.65-.45,7.49,7.49,0,0,1,4.22.1c25,11.25,51.79,17.08,77.54,26,9,3.11,17.68,7.1,26.41,10.92,1.16.51,2.59,2.6,2.4,3.69-3,17-8.57,32.92-19.61,46.52-.46.57-.84,1.2-1.37,2-11.65-6-23.44-10.08-37.14-10.46V259.56c-48,9.56-95.09,6.83-142.73-.33V133.62c-13.87-.33-25.52,5.35-37.61,10.19-6.84-8.49-11.48-18.09-15.14-28.16C23.93,108.94,22.1,102,20,95.18ZM118.77,63l-37,11.55c.82,3.07,1.6,5.9,2.34,8.74,3.3,12.68,4.72,25.41.74,38.23-.95,3.05-2.81,6.08-2.81,9.12,0,38.79.3,77.59.53,116.38,0,1.12.19,2.24.29,3.26,36.52,8.44,106,8.2,135.28-.46.08-1.07.22-2.22.23-3.37q.41-56.43.72-112.86a20.35,20.35,0,0,0-1.57-7.2c-3.45-8.93-5.13-18.12-3.63-27.61,1.29-8.21,3.15-16.33,4.79-24.68L181.42,61.73c-6.4,14.5-15.53,25.43-32.87,24.74C133.22,85.86,123.91,76.93,118.77,63ZM79.94,74.56c-3.18.79-5.93,1.27-8.54,2.14-13.3,4.47-26.59,9-39.8,13.7C30.47,90.81,29,93,29.22,94c3.21,14.27,8.34,27.72,17.25,39.55,2,2.6,3.65,3.09,6.93,2.17,7.83-2.22,15.91-3.57,23.82-5.53a6.11,6.11,0,0,0,3.58-3C89,109.76,85.42,92.41,79.94,74.56Zm172.4,60.85c9.83-11.28,15.61-25.71,19-41.22.18-.84-1.11-2.57-2.1-3-5.64-2.46-11.32-4.9-17.14-6.87-10.24-3.46-20.6-6.58-31.25-10-1.13,4.08-2.17,7.56-3.06,11.08-3.53,14-4.43,27.85,1.8,41.34a6.46,6.46,0,0,0,4,3.05C232.9,131.81,242.24,133.48,252.34,135.4ZM82.73,256.65c8.27,1,16.13,1.88,24,2.83,36.05,4.35,72,4.4,107.92-1.76,3.84-.66,4.18-2.23,3.16-5.94C173,261.27,128,259,83.13,252.43c-.08,0-.19.2-.4.43Zm44.5-197.92c-7.61,2.45-7.85,3-4.34,9.63a29.59,29.59,0,0,0,3.32,5.17c8.07,9.69,18.42,13.35,30.68,10.62,10.5-2.34,21-13.8,22.36-23.81l-5.17-2.15c-4.38,14.62-11.7,21-23.3,20.49C138,78.12,129.8,71.26,127.23,58.73ZM170,65.06c-6.89.71-13.15,1.77-19.42,1.87s-12.72-.73-19.27-1.16c4.44,8.41,12,11.34,20.81,11.32C160.28,77.08,166.25,73,170,65.06ZM129.3,58.3c.3,4.73.3,4.73,4.17,5.57,11.22,2.44,22.37,1.61,33.6-.28,4.06-.69,5.19-2.32,4.56-5.85-7.21.72-14.16,1.89-21.12,2S136.58,58.83,129.3,58.3Zm145,34.14c-3.05,8.85-5.13,16.69-8.45,24s-7.86,14-12,21.13l3.86,1.89c.79-.9,1.51-1.62,2.12-2.43,9-12,13.8-25.73,16.53-40.28C276.57,95.66,275.24,94.31,274.29,92.44Zm-247.13.48-1.77-.39C25,94,24,95.54,24.32,96.76c1.84,6.91,3.48,14,6.2,20.53,3.2,7.77,7.43,15.12,11.31,22.85l5.92-2.51C36.58,124.32,30.88,109.08,27.16,92.92Z"/><path class="cls-2" d="M166.54,145.37h0a2.56,2.56,0,0,1,2.55,2.56v.78a2.56,2.56,0,0,1-2.55,2.56"/><path class="cls-3" d="M137.39,196.89h28.42V171.34a23.32,23.32,0,0,0-28.42.26Z"/><polyline class="cls-4" points="148.63 171.46 151.6 180.15 154.58 171.46"/><path class="cls-2" d="M137.42,171.38v25.33m28.38-25.33v25.33"/><path class="cls-5" d="M151.94,164.67c.37,0,.67.17.67.38v2.57c0,.21-.3.38-.67.38h0c-.37,0-.67-.17-.67-.38v-2.57c0-.21.3-.38.67-.38Z"/><path class="cls-2" d="M174.94,196.56v-6.92a23.33,23.33,0,1,0-46.67,0v6.92"/><line class="cls-2" x1="151.61" y1="179.75" x2="151.61" y2="196.56"/><polygon class="cls-4" points="161.09 167.3 151.34 170.88 142.12 168.01 146.49 180.15 151.37 171.44 156.24 180.15 161.09 167.3"/><path class="cls-4" d="M137.19,140l-.58,15c0,9,6.72,16.3,15,16.3s15-7.3,15-16.3L166,140Z"/><line class="cls-2" x1="157.72" y1="150.37" x2="166.54" y2="150.37"/><line class="cls-2" x1="151.27" y1="140" x2="156.96" y2="150.26"/><path class="cls-2" d="M136.77,151.26h0a2.56,2.56,0,0,1-2.55-2.56v-.78a2.56,2.56,0,0,1,2.55-2.56"/><circle class="cls-5" cx="157.05" cy="150.37" r="3.67"/><circle class="cls-5" cx="146.25" cy="150.26" r="1.67"/><circle class="cls-5" cx="156.96" cy="150.26" r="1.67"/><path class="cls-5" d="M154.89,161.09a.67.67,0,0,1-.67.66h-4.5a.67.67,0,0,1-.67-.66h0a.67.67,0,0,1,.67-.67h4.5a.67.67,0,0,1,.67.67Z"/><path class="cls-5" d="M152,165c.37,0,.66.17.66.38v2.57c0,.21-.3.38-.66.38h0c-.37,0-.67-.17-.67-.38v-2.57c0-.21.3-.38.67-.38Z"/><path class="cls-5" d="M173.66,137h-5.74c0-6.46-7.31-11.7-16.32-11.7s-16.32,5.24-16.32,11.7h-5.73a2.95,2.95,0,1,0,0,5.89h44.11a2.95,2.95,0,1,0,0-5.89Z"/><path class="cls-6" d="M155.36,132.3l.7-.41a.65.65,0,0,0,.06.16.69.69,0,1,0,.73-1h0a.69.69,0,1,0-1.24.12.71.71,0,0,0,.11.14l-.7.41A3.89,3.89,0,0,1,155.36,132.3Z"/><path class="cls-6" d="M157.26,135.84a.69.69,0,0,0-.94.25.74.74,0,0,0-.07.16l-.9-.52a3.89,3.89,0,0,1-.34.6l.9.52a.69.69,0,1,0,1.13.26h0a.68.68,0,0,0,.21-1.27Z"/><path class="cls-6" d="M147.6,131a.69.69,0,1,0-1.24-.12.68.68,0,0,0-.46.33.69.69,0,0,0,1.19.69.64.64,0,0,0,.06-.16l.9.52a4.11,4.11,0,0,1,.34-.6l-.9-.52A.64.64,0,0,0,147.6,131Z"/><path class="cls-6" d="M148,135.73l-1.09.63a.67.67,0,0,0-.06-.16.69.69,0,1,0-1.19.69.68.68,0,0,0,.46.33.69.69,0,1,0,1.24-.12.66.66,0,0,0-.11-.14l1.09-.63A4.06,4.06,0,0,1,148,135.73Z"/><path class="cls-6" d="M151.7,131.21a3,3,0,0,0-2.48,4.68H150v.92h3.4v-.92h.78a3,3,0,0,0-2.48-4.68Zm-1.05,3a.6.6,0,1,1,.6-.6A.6.6,0,0,1,150.65,134.21Zm.63,1.35.42-.9.41.9Zm1.46-1.35a.6.6,0,1,1,.6-.6A.6.6,0,0,1,152.75,134.21Z"/><rect class="cls-6" x="138.97" y="192.2" width="12.44" height="2.04" transform="translate(-95.67 173.19) rotate(-48.33)"/><path class="cls-4" d="M148.08,187.93l-8,9m10-7.2-6.77,7.69"/><rect class="cls-4" x="147.99" y="182.93" width="6.67" height="6.67" transform="translate(-88.47 176.72) rotate(-48.63)"/><rect class="cls-5" x="149.66" y="184.59" width="3.33" height="3.33" transform="translate(-88.47 176.74) rotate(-48.63)"/><polygon class="cls-6" points="165.82 171.34 154.46 184.34 152.65 182.73 163.97 170.02 165.82 171.34"/><line class="cls-4" x1="163.9" y1="169.96" x2="152.35" y2="183.08"/><line class="cls-4" x1="165.9" y1="171.73" x2="154.35" y2="184.84"/><text class="cls-7" transform="translate(126 112.27)">think</text><text class="cls-8" transform="translate(113.99 221)">secret map</text></g></svg>