<svg id="Layer_1" data-name="Layer 1" xmlns="http://www.w3.org/2000/svg" viewBox="0 0 300 300"><defs><style>.cls-1{fill:#d92c64;}.cls-2{fill:#fff;}</style></defs><title>Artboard 2</title><path class="cls-1" d="M256.4,88.16a13.74,13.74,0,1,0-15.6,9,13.74,13.74,0,1,0,15.6-9Z"/><path class="cls-1" d="M59,97.91a13.75,13.75,0,1,0-15.59-9,13.75,13.75,0,1,0,15.59,9Z"/><path class="cls-1" d="M257.29,212.4a13.74,13.74,0,1,0-15.59-9,13.74,13.74,0,1,0,15.59,9Z"/><rect class="cls-1" x="147.37" y="33.91" width="13.73" height="237.99" transform="translate(-55.3 210.03) rotate(-60)"/><path class="cls-1" d="M55.09,205.65a13.74,13.74,0,1,0-15.6,9,13.74,13.74,0,1,0,15.6-9Z"/><rect class="cls-1" x="31.35" y="143.78" width="237.99" height="13.74" transform="translate(-55.18 95.35) rotate(-30)"/><path class="cls-2" d="M231.21,150.65a80.87,80.87,0,1,1-80.87-80.87A80.87,80.87,0,0,1,231.21,150.65Z"/><path class="cls-1" d="M90,144.61a57.67,57.67,0,0,0,10.2,37.63H116v18h68.4v-18h15.76a57.64,57.64,0,0,0,10.4-33c0-34.37-30.18-61.86-66.08-58.63C115.69,93.17,92.27,115.8,90,144.61Zm39.31,4a12,12,0,1,1,12-12A12,12,0,0,1,129.34,148.66ZM142,176.25l8.3-18,8.29,18Zm29.3-27.59a12,12,0,1,1,12-12A12,12,0,0,1,171.34,148.66Z"/></svg>