<svg xmlns="http://www.w3.org/2000/svg" viewBox="0 0 300 300"><defs><style>.cls-1{fill:#1f63aa;}</style></defs><title>blockchain</title><g id="Layer_2" data-name="Layer 2"><path class="cls-1" d="M140.48,36.29a14,14,0,0,1,14.29,14.29,14,14,0,0,1-14.29,14.29,14.65,14.65,0,0,1-14.29-14.29,14.65,14.65,0,0,1,14.29-14.29Zm0-9.52c-12.38,0-23.81,10.47-23.81,23.81s11.43,23.81,23.81,23.81,23.81-10.47,23.81-23.81a23.57,23.57,0,0,0-23.81-23.81Z"/><path class="cls-1" d="M211.9,64.86,183.33,81.05V103.9l-35.24-20L97.62,112.48v34.28l-19-10.47L50,152.48v33.33L78.57,202l28.57-16.19V175.33L150,198.19l47.62-28.57V123l14.29,8.58,28.57-16.19V82L211.9,64.86ZM148.09,95.34l36.19,20-33.33,17.14-38.09-17.14,35.24-20ZM97.62,180.09l-19,11.43-19-10.47v-21.9l19-11.43,19,10.47v21.9Zm9.52-56.18,38.1,17.14v43.81l-38.1-20.95v-40Zm47.62,60V141.05l33.33-17.14v40l-33.33,20ZM231,109.62l-19,11.43-19-11.43V86.76l19-11.43,19,11.43v22.86Z"/><path class="cls-1" d="M73.81,64.86A14.29,14.29,0,1,1,59.52,79.15,14.65,14.65,0,0,1,73.81,64.86Zm0-9.52A23.81,23.81,0,1,0,97.62,79.15,23.57,23.57,0,0,0,73.81,55.34Z"/><path class="cls-1" d="M159.52,217.24a14.65,14.65,0,0,1,14.29,14.29,14.29,14.29,0,1,1-28.57,0,14.65,14.65,0,0,1,14.29-14.29Zm0-9.52a23.81,23.81,0,1,0,23.81,23.81,23.57,23.57,0,0,0-23.81-23.81Z"/><path class="cls-1" d="M226.19,179.15a14.29,14.29,0,1,1-14.29,14.29,14.65,14.65,0,0,1,14.29-14.29Zm0-9.52A23.81,23.81,0,1,0,250,193.43a23.57,23.57,0,0,0-23.81-23.81Z"/></g></svg>