<svg xmlns="http://www.w3.org/2000/svg" viewBox="0 0 300 300"><defs><style>.cls-1{fill:#1f63aa;}.cls-2{fill:#d6e8ea;}.cls-3{fill:#fff;}.cls-4{fill:#681c1e;}</style></defs><title>boy pirate</title><g id="Layer_2" data-name="Layer 2"><path class="cls-1" d="M194.81,119v-2a6.67,6.67,0,0,0,6.67-6.67V108a6.67,6.67,0,0,0-6.67-6.67v-2a8.68,8.68,0,0,1,8.67,8.67v2.33A8.68,8.68,0,0,1,194.81,119Z"/><path class="cls-2" d="M107.36,254.94h85.28V178.28a70,70,0,0,0-85.28.79Z"/><polyline class="cls-3" points="141.09 178.64 150 204.72 158.91 178.64"/><polygon class="cls-1" points="150 207.81 140.14 178.97 142.03 178.32 150 201.63 157.97 178.32 159.86 178.97 150 207.81"/><path class="cls-1" d="M193.57,254.4h-2v-76h2Zm-85.14,0h-2v-76h2Z"/><path class="cls-4" d="M151,158.3c1.1,0,2,.51,2,1.14v7.71c0,.63-.9,1.14-2,1.14h0c-1.1,0-2-.51-2-1.14v-7.71c0-.63.9-1.14,2-1.14Z"/><path class="cls-1" d="M221,253.94h-2V233.17a69,69,0,0,0-138,0v20.77H79V233.17a71,71,0,0,1,142,0Z"/><rect class="cls-1" x="149" y="203.51" width="2" height="50.43"/><polygon class="cls-3" points="178.46 166.17 149.19 176.92 121.54 168.3 134.66 204.72 149.28 178.58 163.91 204.72 178.46 166.17"/><path class="cls-1" d="M134.46,207.12l-14.54-40.37,29.25,9.12,31-11.38-16.08,42.6-14.81-26.46Zm15.48-29.41,13.79,24.65,13-34.49Zm-26.78-7.86,11.7,32.46,13.73-24.54Z"/><path class="cls-3" d="M106.74,84.26l-1.74,45c0,27,20.15,48.91,45,48.91s45-21.9,45-48.91l-1.74-45Z"/><path class="cls-1" d="M150,179.17c-25.36,0-46-22.39-46-49.91l1.78-46h88.45l1.78,46C196,156.78,175.36,179.17,150,179.17ZM107.7,85.26l-1.7,44c0,26.38,19.74,47.87,44,47.87s44-21.49,44-47.91l-1.7-44Z"/><rect class="cls-1" x="168.33" y="114.38" width="26.48" height="2"/><rect class="cls-1" x="156.54" y="82.05" width="2" height="35.21" transform="translate(-28.56 88.91) rotate(-29.01)"/><path class="cls-1" d="M105.5,119a8.68,8.68,0,0,1-8.67-8.67V108a8.68,8.68,0,0,1,8.67-8.67v2A6.67,6.67,0,0,0,98.83,108v2.33A6.67,6.67,0,0,0,105.5,117Z"/><circle class="cls-1" cx="166.33" cy="115.38" r="11"/><circle class="cls-1" cx="133.92" cy="115.05" r="5"/><path class="cls-1" d="M158.75,147.55a2,2,0,0,1-2,2h-13.5a2,2,0,0,1-2-2h0a2,2,0,0,1,2-2h13.5a2,2,0,0,1,2,2Z"/><path class="cls-1" d="M216.16,76.2H199C199,56.82,177,41.1,150,41.1S101,56.82,101,76.2H83.84a8.84,8.84,0,1,0,0,17.67H216.16a8.84,8.84,0,1,0,0-17.67Z"/><path class="cls-3" d="M161.27,62.17,163.38,61a2,2,0,0,0,.2.48,2.06,2.06,0,1,0,2.18-3h0a2.05,2.05,0,0,0-3-2.45,2,2,0,0,0-.44,3.22l-2.11,1.22A12,12,0,0,1,161.27,62.17Z"/><path class="cls-3" d="M167,72.78a2.06,2.06,0,0,0-2.81.75,2,2,0,0,0-.2.48l-2.69-1.55a12,12,0,0,1-1,1.79l2.69,1.55a2,2,0,0,0-.32.41,2.06,2.06,0,0,0,3.57,2.06,2,2,0,0,0,.16-1.69h0a2.05,2.05,0,0,0,.63-3.8Z"/><path class="cls-3" d="M138,58.42a2.06,2.06,0,0,0-3.57-2.06,2,2,0,0,0-.16,1.69,2.06,2.06,0,1,0,2.18,3,2.09,2.09,0,0,0,.19-.48l2.69,1.55a12.2,12.2,0,0,1,1-1.79l-2.69-1.55A2,2,0,0,0,138,58.42Z"/><path class="cls-3" d="M139.32,72.46,136,74.36a2,2,0,0,0-.2-.48,2.06,2.06,0,1,0-2.18,3,2.07,2.07,0,1,0,3.41-.78l3.27-1.89A12.2,12.2,0,0,1,139.32,72.46Z"/><path class="cls-3" d="M150.29,58.92a9,9,0,0,0-7.45,14h2.35v2.75h10.2V73h2.35a9,9,0,0,0-7.45-14Zm-3.15,9a1.8,1.8,0,1,1,1.8-1.8A1.8,1.8,0,0,1,147.14,67.92ZM149,72l1.24-2.7,1.24,2.7Zm4.39-4a1.8,1.8,0,1,1,1.8-1.8A1.8,1.8,0,0,1,153.44,67.92Z"/><rect class="cls-3" x="112.08" y="240.86" width="37.31" height="6.12" transform="translate(-138.39 179.4) rotate(-48.33)"/><path class="cls-3" d="M139.43,228.06l-24.06,26.89m30.06-21.6-20.32,23.07"/><path class="cls-1" d="M125.86,257.08l-1.5-1.32,20.32-23.07,1.5,1.32Zm-9.74-1.47-1.49-1.33,24.06-26.89,1.49,1.33Z"/><rect class="cls-3" x="139.16" y="213.05" width="20" height="20" transform="translate(-116.81 187.58) rotate(-48.63)"/><path class="cls-1" d="M150.15,238.58,133.64,224l14.54-16.51,16.51,14.54Zm-13.69-14.72L150,235.76l11.9-13.51-13.51-11.9Z"/><rect class="cls-1" x="144.16" y="218.05" width="10" height="10" transform="translate(-116.81 187.58) rotate(-48.63)"/><polygon class="cls-3" points="192.64 178.28 158.55 217.29 153.14 212.48 187.08 174.34 192.64 178.28"/><line class="cls-3" x1="186.89" y1="174.17" x2="152.23" y2="213.52"/><rect class="cls-1" x="143.34" y="192.84" width="52.43" height="2" transform="translate(-87.98 192.86) rotate(-48.6)"/><line class="cls-3" x1="192.89" y1="179.46" x2="158.24" y2="218.8"/><rect class="cls-1" x="149.35" y="198.13" width="52.43" height="2" transform="translate(-89.91 199.15) rotate(-48.6)"/><path class="cls-2" d="M113.57,156c3.32,5.42,10.21,13,16.13,16.16a43.46,43.46,0,0,0,40.61,0c5.92-3.19,12.81-10.74,16.13-16.16L150,168.3Z"/><path class="cls-1" d="M150,160.3c1.1,0,2,.51,2,1.14v7.71c0,.63-.9,1.14-2,1.14h0c-1.11,0-2-.51-2-1.14v-7.71c0-.63.89-1.14,2-1.14Z"/></g></svg>