<svg xmlns="http://www.w3.org/2000/svg" viewBox="0 0 300 300"><defs><style>.cls-1{fill:none;}.cls-1,.cls-3{stroke:#783938;stroke-miterlimit:10;stroke-width:2px;}.cls-2{fill:#e7dcd9;}.cls-3,.cls-5{fill:#fff;}.cls-4{fill:#783938;}</style></defs><title>boy pirate</title><g id="Layer_2" data-name="Layer 2"><path class="cls-1" d="M194.81,100.38h0a7.67,7.67,0,0,1,7.67,7.67v2.33a7.67,7.67,0,0,1-7.67,7.67"/><path class="cls-2" d="M107.36,254.94h85.28V178.28a70,70,0,0,0-85.28.78Z"/><polyline class="cls-3" points="141.09 178.64 150 204.72 158.91 178.64"/><path class="cls-1" d="M107.43,178.4v76m85.14-76v76"/><path class="cls-4" d="M151,158.3c1.1,0,2,.51,2,1.14v7.71c0,.64-.9,1.15-2,1.15h0c-1.1,0-2-.51-2-1.15v-7.71c0-.63.9-1.14,2-1.14Z"/><path class="cls-1" d="M220,253.94V233.17a70,70,0,1,0-140,0v20.77"/><line class="cls-1" x1="150" y1="203.51" x2="150" y2="253.94"/><polygon class="cls-3" points="178.46 166.17 149.19 176.92 121.54 168.3 134.66 204.72 149.28 178.58 163.91 204.72 178.46 166.17"/><path class="cls-3" d="M106.74,84.26l-1.74,45c0,27,20.15,48.91,45,48.91s45-21.9,45-48.91l-1.74-45Z"/><line class="cls-1" x1="168.33" y1="115.38" x2="194.81" y2="115.38"/><line class="cls-1" x1="149" y1="84.26" x2="166.08" y2="115.05"/><path class="cls-1" d="M105.5,118.05h0a7.67,7.67,0,0,1-7.67-7.67v-2.33a7.67,7.67,0,0,1,7.67-7.67"/><circle class="cls-4" cx="166.33" cy="115.38" r="11"/><circle class="cls-4" cx="133.92" cy="115.05" r="5"/><circle class="cls-4" cx="166.08" cy="115.05" r="5"/><path class="cls-4" d="M158.75,147.55a2,2,0,0,1-2,2h-13.5a2,2,0,0,1-2-2h0a2,2,0,0,1,2-2h13.5a2,2,0,0,1,2,2Z"/><path class="cls-4" d="M216.16,76.2H199c0-19.38-21.92-35.1-49-35.1s-49,15.72-49,35.1H83.84a8.84,8.84,0,1,0,0,17.67H216.16a8.84,8.84,0,1,0,0-17.67Z"/><path class="cls-5" d="M161.27,62.17,163.38,61a1.84,1.84,0,0,0,.19.49,2.06,2.06,0,1,0,2.18-3h0a2,2,0,0,0-.16-1.69A2.06,2.06,0,1,0,162,58.76a2.15,2.15,0,0,0,.32.41l-2.1,1.21A13.83,13.83,0,0,1,161.27,62.17Z"/><path class="cls-5" d="M167,72.78a2.06,2.06,0,0,0-2.82.76A1.66,1.66,0,0,0,164,74l-2.69-1.56a12.61,12.61,0,0,1-1,1.79l2.69,1.55a2.15,2.15,0,0,0-.32.41,2.06,2.06,0,1,0,3.57,2.06,2,2,0,0,0,.15-1.69h0a2.06,2.06,0,0,0,.63-3.8Z"/><path class="cls-5" d="M138,58.42a2.06,2.06,0,0,0-3.57-2.06,2,2,0,0,0-.16,1.69,2.08,2.08,0,0,0-1.39,1,2.06,2.06,0,0,0,3.57,2.06,2.45,2.45,0,0,0,.2-.48l2.69,1.55a11.37,11.37,0,0,1,1-1.79l-2.69-1.55A1.88,1.88,0,0,0,138,58.42Z"/><path class="cls-5" d="M139.32,72.46,136,74.36a1.84,1.84,0,0,0-.19-.49,2.06,2.06,0,0,0-3.57,2.06,2,2,0,0,0,1.38,1,2.06,2.06,0,1,0,3.73-.37,1.88,1.88,0,0,0-.32-.41l3.28-1.89A10.94,10.94,0,0,1,139.32,72.46Z"/><path class="cls-5" d="M150.29,58.92a9,9,0,0,0-7.45,14h2.35v2.75h10.2V73h2.35a9,9,0,0,0-7.45-14Zm-3.15,9a1.8,1.8,0,1,1,1.8-1.8A1.81,1.81,0,0,1,147.14,67.92Zm1.91,4,1.24-2.7,1.25,2.7Zm4.39-4a1.8,1.8,0,1,1,1.8-1.8A1.81,1.81,0,0,1,153.44,67.92Z"/><rect class="cls-5" x="112.08" y="240.86" width="37.31" height="6.12" transform="translate(-138.39 179.4) rotate(-48.33)"/><path class="cls-3" d="M139.43,228.06l-24.05,26.88m30.06-21.59-20.33,23.07"/><rect class="cls-3" x="139.16" y="213.05" width="20" height="20" transform="translate(-116.81 187.58) rotate(-48.63)"/><rect class="cls-4" x="144.16" y="218.05" width="10" height="10" transform="translate(-116.81 187.58) rotate(-48.63)"/><polygon class="cls-5" points="192.64 178.28 158.55 217.29 153.14 212.48 187.08 174.34 192.64 178.28"/><line class="cls-3" x1="186.89" y1="174.17" x2="152.23" y2="213.52"/><line class="cls-3" x1="192.89" y1="179.46" x2="158.24" y2="218.8"/><path class="cls-2" d="M113.57,156c3.32,5.42,10.21,13,16.13,16.17a43.48,43.48,0,0,0,40.6,0c5.92-3.2,12.81-10.75,16.13-16.17L150,168.3Z"/><path class="cls-4" d="M150,160.3c1.1,0,2,.51,2,1.14v7.71c0,.63-.9,1.14-2,1.14h0c-1.11,0-2-.51-2-1.14v-7.71c0-.63.89-1.14,2-1.14Z"/></g></svg>