<svg xmlns="http://www.w3.org/2000/svg" viewBox="0 0 300 300"><defs><style>.cls-1{fill:#783938;}</style></defs><title>fitcoin</title><g id="Layer_1" data-name="Layer 1"><path class="cls-1" d="M142.27,47.08a100,100,0,1,0,100,100A100,100,0,0,0,142.27,47.08Zm0,183.33a83.33,83.33,0,1,1,83.33-83.33A83.33,83.33,0,0,1,142.27,230.41Z"/></g><g id="Layer_2" data-name="Layer 2"><path class="cls-1" d="M179.82,128.21l7-4.06a6.55,6.55,0,0,0,.65,1.61,6.87,6.87,0,1,0,7.27-10.15h0a6.85,6.85,0,0,0-9.91-8.16,6.77,6.77,0,0,0-1.45,10.75l-7,4A40.35,40.35,0,0,1,179.82,128.21Z"/><path class="cls-1" d="M198.83,163.58a6.86,6.86,0,0,0-9.38,2.51,6.71,6.71,0,0,0-.65,1.61l-9-5.19a39.85,39.85,0,0,1-3.42,6l9,5.18a6.62,6.62,0,0,0-1.07,1.37,6.87,6.87,0,0,0,11.9,6.87,6.76,6.76,0,0,0,.52-5.65h0a6.85,6.85,0,0,0,2.11-12.66Z"/><path class="cls-1" d="M102.19,115.71a6.87,6.87,0,1,0-12.42-1.22A6.86,6.86,0,1,0,97,124.64a6.71,6.71,0,0,0,.65-1.61l9,5.18a41.32,41.32,0,0,1,3.43-6l-9-5.17A6.55,6.55,0,0,0,102.19,115.71Z"/><path class="cls-1" d="M106.66,162.51l-10.92,6.31a6.75,6.75,0,0,0-.66-1.61,6.87,6.87,0,1,0-7.27,10.15,6.86,6.86,0,1,0,12.43-1.22,6.62,6.62,0,0,0-1.07-1.37l10.91-6.3A40.74,40.74,0,0,1,106.66,162.51Z"/><path class="cls-1" d="M143.24,117.36a30,30,0,0,0-24.84,46.83h7.84v9.17h34v-9.17h7.83a30,30,0,0,0-24.83-46.83Zm-10.49,30a6,6,0,1,1,6-6A6,6,0,0,1,132.75,147.36Zm6.34,13.5,4.15-9,4.14,9Zm14.65-13.5a6,6,0,1,1,6-6A6,6,0,0,1,153.74,147.36Z"/></g></svg>