<svg xmlns="http://www.w3.org/2000/svg" viewBox="0 0 300 300"><defs><style>.cls-1{fill:#d92c64;}</style></defs><title>fitcoin</title><g id="Layer_1" data-name="Layer 1"><path class="cls-1" d="M150,47.08a100,100,0,1,0,100,100A100,100,0,0,0,150,47.08Zm0,183.33a83.33,83.33,0,1,1,83.33-83.33A83.33,83.33,0,0,1,150,230.41Z"/></g><g id="Layer_2" data-name="Layer 2"><path class="cls-1" d="M187.55,128.21l7-4.06a6.66,6.66,0,0,0,.65,1.61,6.87,6.87,0,1,0,7.27-10.15h0a6.86,6.86,0,1,0-12.42,1.23,6.69,6.69,0,0,0,1.07,1.37l-7,4.05A40.31,40.31,0,0,1,187.55,128.21Z"/><path class="cls-1" d="M206.56,163.58a6.87,6.87,0,0,0-9.38,2.51,6.61,6.61,0,0,0-.65,1.61l-9-5.18a40.07,40.07,0,0,1-3.42,6l9,5.18A6.64,6.64,0,0,0,192,175a6.87,6.87,0,1,0,12.42,1.22h0a6.84,6.84,0,0,0,2.11-12.66Z"/><path class="cls-1" d="M109.93,115.71a6.87,6.87,0,1,0-12.43-1.22,6.86,6.86,0,1,0,7.28,10.15,6.71,6.71,0,0,0,.64-1.61l9,5.18a40.77,40.77,0,0,1,3.42-6l-9-5.18A6.67,6.67,0,0,0,109.93,115.71Z"/><path class="cls-1" d="M114.4,162.51l-10.93,6.31a6.86,6.86,0,1,0-7.92,8.54A6.86,6.86,0,1,0,108,176.14a6.67,6.67,0,0,0-1.07-1.37l10.91-6.3A40.15,40.15,0,0,1,114.4,162.51Z"/><path class="cls-1" d="M151,117.36a30,30,0,0,0-24.84,46.83H134v9.16h34v-9.16h7.83A30,30,0,0,0,151,117.36Zm-10.5,30a6,6,0,1,1,6-6A6,6,0,0,1,140.48,147.36Zm6.35,13.5,4.15-9,4.14,9Zm14.65-13.5a6,6,0,1,1,6-6A6,6,0,0,1,161.48,147.36Z"/></g></svg>