<svg xmlns="http://www.w3.org/2000/svg" xmlns:xlink="http://www.w3.org/1999/xlink" viewBox="0 0 300 300"><defs><style>.cls-1,.cls-4{fill:none;}.cls-2,.cls-5{fill:#fff;}.cls-3{fill:#e6dbd8;}.cls-4,.cls-5,.cls-6,.cls-7{stroke:#783938;stroke-miterlimit:10;stroke-width:2px;}.cls-6,.cls-8{fill:#783938;}.cls-7{fill:url(#New_Pattern_Swatch_7);}</style><pattern id="New_Pattern_Swatch_7" data-name="New Pattern Swatch 7" width="200" height="170.05" patternTransform="translate(0.25 -27.84)" patternUnits="userSpaceOnUse" viewBox="0 0 200 170.05"><rect class="cls-1" width="200" height="170.05"/><rect class="cls-2" width="200" height="170.04"/><rect class="cls-3" x="0.11" width="199.89" height="9.16"/><rect class="cls-3" y="17.88" width="199.89" height="9.16"/><rect class="cls-3" y="35.75" width="199.89" height="9.16"/><rect class="cls-3" y="53.63" width="199.89" height="9.16"/><rect class="cls-3" y="71.51" width="199.89" height="9.16"/><rect class="cls-3" y="89.38" width="199.89" height="9.16"/><rect class="cls-3" y="107.26" width="199.89" height="9.16"/><rect class="cls-3" y="125.14" width="199.89" height="9.16"/><rect class="cls-3" y="143.01" width="199.89" height="9.16"/><rect class="cls-3" y="160.89" width="199.89" height="9.16"/></pattern></defs><title>girl pirate</title><g id="Layer_2" data-name="Layer 2"><path class="cls-4" d="M207.5,134c0,51.91-43.23,58.24-75,58.24s-40-22.17-40-74.09,23-81.49,54.7-81.49S207.5,82,207.5,134Z"/><path class="cls-5" d="M219.36,260.45V211.31a32.27,32.27,0,0,0-3.26-14.12,36.41,36.41,0,0,0-8.9-11.53A42.36,42.36,0,0,0,194,177.88,46.65,46.65,0,0,0,177.86,175H163.8v-9.68H135.7V175H121.64a46.65,46.65,0,0,0-16.15,2.85,42.36,42.36,0,0,0-13.19,7.78,36.41,36.41,0,0,0-8.9,11.53,32.27,32.27,0,0,0-3.26,14.12v49.14Z"/><polyline class="cls-5" points="163.81 175.5 163.81 175.81 163.81 165.81 135.69 165.81 135.69 175.81 135.69 175.5"/><path class="cls-5" d="M195.27,109.4c0,32.81-20.27,59.41-45.27,59.41s-45.27-26.6-45.27-59.41S125,50,150,50,195.27,76.58,195.27,109.4Z"/><path class="cls-5" d="M112.21,188.93c0-65.72,20.5-119,45.8-119l.37,1c0,20.63,19.69,24.52,43.45,24.52,0,0-7.34-30.61-12.89-37.55A58.17,58.17,0,0,0,169.7,42.06a50.57,50.57,0,0,0-22.82-5.44,45.54,45.54,0,0,0-21.95,5.44A50.69,50.69,0,0,0,107.62,57.9,79.77,79.77,0,0,0,96.26,83.48a136.47,136.47,0,0,0-4.09,34.63A255.26,255.26,0,0,0,94,151.59c1.27,9.38,3.3,17,6.32,23a29.73,29.73,0,0,0,12.26,13.3"/><path class="cls-6" d="M198.09,80.29s-7-22.72-12.26-27.87a54.73,54.73,0,0,0-18.3-11.76,59.57,59.57,0,0,0-21.71-4,53.42,53.42,0,0,0-20.88,4,46.12,46.12,0,0,0-16.47,11.76,54,54,0,0,0-10.81,19,80.45,80.45,0,0,0-3.88,25.71"/><path class="cls-6" d="M100.42,92.8c.33,1.53-12.72,5.68-29.16,9.27s-30,5.25-30.38,3.72,12.73-5.68,29.17-9.27S100.08,91.27,100.42,92.8Z"/><path class="cls-6" d="M100.65,93c-.28,1.55-13.93.4-30.5-2.55s-29.77-6.6-29.49-8.14,13.92-.4,30.49,2.55S100.92,91.47,100.65,93Z"/><path class="cls-7" d="M136,176.24c0,6.11,6.27,11.07,14,11.07s14-5,14-11.07l.05-.43h14.06a46.65,46.65,0,0,1,16.15,2.85,42.34,42.34,0,0,1,13.19,7.77,36.52,36.52,0,0,1,8.9,11.53,32.31,32.31,0,0,1,3.26,14.12v49.15H80.39V212.08A32.31,32.31,0,0,1,83.65,198a36.52,36.52,0,0,1,8.9-11.53,42.34,42.34,0,0,1,13.19-7.77,46.65,46.65,0,0,1,16.15-2.85H136"/><circle class="cls-6" cx="90.38" cy="93" r="7"/><line class="cls-4" x1="132.4" y1="175.81" x2="136.6" y2="175.81"/><rect class="cls-2" x="78.75" y="259.45" width="142.25" height="3.92"/><circle class="cls-8" cx="133.92" cy="110.4" r="5"/><circle class="cls-8" cx="166.08" cy="110.4" r="5"/><path class="cls-2" d="M151.47,57.88,153,56.59a2.06,2.06,0,0,0,.23.37,1.72,1.72,0,0,0,2.65-2.18,1.69,1.69,0,0,0-1.27-.62h0a1.73,1.73,0,0,0-.37-1.37,1.72,1.72,0,1,0-2.33,2.47l-1.56,1.29A10.71,10.71,0,0,1,151.47,57.88Z"/><path class="cls-2" d="M157.61,65.82a1.71,1.71,0,0,0-2.21,1,1.57,1.57,0,0,0-.09.43l-2.43-.91a10.4,10.4,0,0,1-.6,1.61l2.42.91a1.52,1.52,0,0,0-.2.38,1.71,1.71,0,1,0,3.21,1.2,1.69,1.69,0,0,0-.1-1.41h0a1.71,1.71,0,0,0,0-3.21Z"/><path class="cls-2" d="M131.81,58a1.72,1.72,0,1,0-3.22-1.2,1.69,1.69,0,0,0,.11,1.41,1.69,1.69,0,0,0-1,1,1.72,1.72,0,0,0,3.22,1.2A1.58,1.58,0,0,0,131,60l2.43.91a8.87,8.87,0,0,1,.6-1.61l-2.43-.91A1.28,1.28,0,0,0,131.81,58Z"/><path class="cls-2" d="M134.84,69.35l-2.44,2a2,2,0,0,0-.22-.37,1.72,1.72,0,1,0-2.65,2.19,1.69,1.69,0,0,0,1.27.62,1.72,1.72,0,1,0,3-.82,2.15,2.15,0,0,0-.32-.29l2.43-2A10.71,10.71,0,0,1,134.84,69.35Z"/><path class="cls-2" d="M142,56.71a7.5,7.5,0,0,0-6.16,8.63,7.42,7.42,0,0,0,2,3.94l1.94-.32.37,2.26,8.39-1.4-.38-2.26,1.93-.32A7.5,7.5,0,0,0,142,56.71Zm-1.35,7.83a1.5,1.5,0,1,1,1.23-1.73A1.51,1.51,0,0,1,140.65,64.54Zm2.12,3.07.65-2.39,1.39,2Zm3-3.94A1.5,1.5,0,1,1,147.06,62,1.49,1.49,0,0,1,145.82,63.67Z"/><path class="cls-5" d="M155.5,141.21c0,2.48-2.46,4.5-5.5,4.5s-5.5-2-5.5-4.5"/><path class="cls-4" d="M194.26,103.58h0a7.66,7.66,0,0,1,7.67,7.67v2.33a7.67,7.67,0,0,1-7.67,7.67"/><path class="cls-4" d="M196.09,121.48c0,3.46.9,6.27,2,6.27s2-2.81,2-6.27-.89-6.27-2-6.27"/><line class="cls-4" x1="191.89" y1="198.58" x2="191.89" y2="258.79"/><line class="cls-4" x1="107.61" y1="198.58" x2="107.61" y2="258.79"/><path class="cls-4" d="M172.34,175.9c0,17.73-10.06,32.1-22.46,32.1s-22.47-14.37-22.47-32.1"/><circle class="cls-8" cx="150.06" cy="208" r="3.5"/><circle class="cls-8" cx="161.31" cy="203" r="3"/><circle class="cls-8" cx="169.31" cy="193.5" r="3"/><circle class="cls-8" cx="138.5" cy="203.58" r="3"/><circle class="cls-8" cx="131.41" cy="193.58" r="3"/><circle class="cls-8" cx="172.34" cy="181.25" r="3"/><circle class="cls-8" cx="127.41" cy="181.25" r="3"/><path class="cls-4" d="M160.4,242.77a9.88,9.88,0,0,1-18.81,0"/><polygon class="cls-8" points="157.81 243.97 160.17 243.47 162.17 244.82 161 239.23 157.81 243.97"/><polygon class="cls-8" points="144.19 243.97 141.83 243.47 139.83 244.82 141 239.23 144.19 243.97"/><line class="cls-4" x1="151" y1="229.13" x2="151" y2="249.13"/><circle class="cls-4" cx="151" cy="227.5" r="2"/><line class="cls-4" x1="145" y1="232.86" x2="157" y2="232.86"/></g></svg>