<svg xmlns="http://www.w3.org/2000/svg" viewBox="0 0 300 300"><defs><style>.cls-1{fill:#1f63aa;}.cls-2{fill:#fff;stroke:#fff;stroke-width:0.25px;}</style></defs><title>kubernetes</title><g id="Layer_2" data-name="Layer 2"><g id="layer1"><g id="g3052"><path id="path3055" class="cls-1" d="M149.31,54a13.37,13.37,0,0,0-5.09,1.29L74.68,88.55a13.21,13.21,0,0,0-7.19,8.95L50.33,172.12a13.1,13.1,0,0,0,1.81,10.11,12.91,12.91,0,0,0,.76,1L101,243.12a13.34,13.34,0,0,0,10.39,5l77.18,0a13.34,13.34,0,0,0,10.4-5l48.11-59.85a13.1,13.1,0,0,0,2.57-11.16L232.49,97.48a13.21,13.21,0,0,0-7.19-8.95l-69.54-33.2A13.4,13.4,0,0,0,149.31,54Z"/><path id="path3059" class="cls-2" d="M150,79.43a4.41,4.41,0,0,0-4.16,4.62s0,.08,0,.12c0,.35,0,.76,0,1.07a34.42,34.42,0,0,0,.57,4,39,39,0,0,1,.46,7.55,4.55,4.55,0,0,1-1.35,2.15l-.1,1.76a54.23,54.23,0,0,0-7.52,1.16,53.53,53.53,0,0,0-27.19,15.54c-.46-.31-1.26-.89-1.5-1.07a3.29,3.29,0,0,1-2.47-.24,38.82,38.82,0,0,1-5.61-5.07,34.84,34.84,0,0,0-2.74-2.91c-.25-.22-.64-.51-.92-.74a5,5,0,0,0-2.9-1.09,4,4,0,0,0-3.32,1.47,4.41,4.41,0,0,0,1,6.14l.06,0c.27.22.61.51.86.69a34.54,34.54,0,0,0,3.45,2,39,39,0,0,1,6.19,4.35,4.64,4.64,0,0,1,.84,2.4l1.33,1.19a53.85,53.85,0,0,0-8.49,37.54l-1.74.51A5.77,5.77,0,0,1,93,164.39a38.79,38.79,0,0,1-7.46,1.23,34.53,34.53,0,0,0-4,.32c-.32.06-.76.18-1.11.26h0l-.06,0a4.18,4.18,0,1,0,1.85,8.11h.06l.08,0c.34-.08.77-.16,1.08-.24a35.19,35.19,0,0,0,3.74-1.43,38.88,38.88,0,0,1,7.26-2.13,4.6,4.6,0,0,1,2.39.84l1.81-.31a54.15,54.15,0,0,0,24,30l-.76,1.81a4.12,4.12,0,0,1,.37,2.35,40.71,40.71,0,0,1-3.77,6.77,34.77,34.77,0,0,0-2.23,3.33c-.16.31-.37.79-.53,1.12a4.18,4.18,0,1,0,7.51,3.57h0c.16-.33.38-.75.52-1.06a34.66,34.66,0,0,0,1.2-3.82c1.1-2.77,1.71-5.67,3.22-7.48a3.38,3.38,0,0,1,1.79-.87l.94-1.71a53.86,53.86,0,0,0,38.41.1l.89,1.6a3.29,3.29,0,0,1,2.13,1.29,38.81,38.81,0,0,1,2.86,7,34.54,34.54,0,0,0,1.21,3.81c.13.31.36.74.52,1.07a4.18,4.18,0,1,0,7.52-3.56c-.16-.33-.38-.81-.54-1.12a34.47,34.47,0,0,0-2.23-3.32,38.92,38.92,0,0,1-3.69-6.61,3.26,3.26,0,0,1,.32-2.46,14.12,14.12,0,0,1-.69-1.68,54.15,54.15,0,0,0,24-30.18c.54.08,1.47.25,1.78.31a3.28,3.28,0,0,1,2.33-.86,38.84,38.84,0,0,1,7.26,2.13,34.68,34.68,0,0,0,3.73,1.44c.3.08.73.16,1.08.23l.08,0h.06a4.18,4.18,0,1,0,1.85-8.11c-.36-.08-.86-.22-1.21-.28a34.52,34.52,0,0,0-4-.32,38.79,38.79,0,0,1-7.46-1.23,4.66,4.66,0,0,1-1.8-1.81l-1.68-.49a54.07,54.07,0,0,0-8.67-37.46l1.48-1.32a3.29,3.29,0,0,1,.78-2.36,38.87,38.87,0,0,1,6.19-4.35,34.83,34.83,0,0,0,3.46-2c.27-.2.63-.51.92-.74a4.18,4.18,0,1,0-5.19-6.51c-.28.23-.67.52-.92.74a34.89,34.89,0,0,0-2.75,2.91,39,39,0,0,1-5.61,5.08,4.62,4.62,0,0,1-2.53.28l-1.58,1.13a54.55,54.55,0,0,0-34.55-16.69c0-.55-.09-1.56-.1-1.86a3.29,3.29,0,0,1-1.36-2.08,38.94,38.94,0,0,1,.47-7.55,34.6,34.6,0,0,0,.57-4c0-.33,0-.82,0-1.18A4.41,4.41,0,0,0,150,79.43Zm-5.21,32.28-1.24,21.83-.09,0a3.67,3.67,0,0,1-5.82,2.81l0,0-17.9-12.69a42.88,42.88,0,0,1,20.65-11.25A44,44,0,0,1,144.78,111.71Zm10.43,0a43.23,43.23,0,0,1,24.93,12l-17.79,12.61-.06,0a3.67,3.67,0,0,1-5.83-2.8h0Zm-42,20.17,16.34,14.62,0,.09a3.67,3.67,0,0,1-1.44,6.31l0,.07-21,6A42.86,42.86,0,0,1,113.21,131.88Zm73.46,0a43.65,43.65,0,0,1,6.27,27.05l-21.06-6.07,0-.09a3.67,3.67,0,0,1-1.44-6.3v0l16.25-14.55Zm-40,15.74h6.7l4.16,5.2L156,159.32l-6,2.89-6-2.9-1.49-6.49Zm21.47,17.8a3.7,3.7,0,0,1,.84.06l0,0,21.67,3.66a42.91,42.91,0,0,1-17.35,21.79l-8.41-20.32,0,0a3.68,3.68,0,0,1,3.18-5.12Zm-36.4.09a3.67,3.67,0,0,1,3.32,5.11l.06.08-8.32,20.11a43.09,43.09,0,0,1-17.3-21.64L131,165.54l0,0a3.6,3.6,0,0,1,.72-.06Zm18.15,8.81a3.7,3.7,0,0,1,3.36,1.93h.08l10.59,19.14a43.82,43.82,0,0,1-4.23,1.18,43,43,0,0,1-23.48-1.21l10.56-19.1h0A3.67,3.67,0,0,1,149.86,174.34Z"/></g></g></g></svg>