<svg id="Layer_1" data-name="Layer 1" xmlns="http://www.w3.org/2000/svg" viewBox="0 0 300 300"><defs><style>.cls-1{fill:#003BC9;}</style></defs><title>scales</title><rect class="cls-1" x="128.47" y="181.29" width="43.05" height="25.32"/><path class="cls-1" d="M220.91,85.93H191.06a42.63,42.63,0,0,0-82.12,0H79.09A13.51,13.51,0,0,0,65.59,99.43V241.24a13.51,13.51,0,0,0,13.51,13.51H220.91a13.51,13.51,0,0,0,13.51-13.51V99.43A13.51,13.51,0,0,0,220.91,85.93ZM150,73.58a23.64,23.64,0,1,1-23.64,23.64A23.64,23.64,0,0,1,150,73.58Zm67.53,153.48a10.81,10.81,0,0,1-10.8,10.81H93.28a10.81,10.81,0,0,1-10.81-10.81V113.61a10.81,10.81,0,0,1,10.81-10.81h14.45a42.62,42.62,0,0,0,84.54,0h14.45a10.81,10.81,0,0,1,10.8,10.81Z"/></svg>
