<svg xmlns="http://www.w3.org/2000/svg" viewBox="0 0 300 300"><defs><style>.cls-1,.cls-4{fill:#783938;}.cls-2{fill:none;}.cls-2,.cls-3,.cls-4{stroke:#783938;stroke-miterlimit:10;stroke-width:2px;}.cls-3{fill:#fff;}</style></defs><title>telescope</title><g id="Layer_2" data-name="Layer 2"><rect class="cls-1" x="81.46" y="125.99" width="109" height="48.49" transform="translate(-56.9 88.11) rotate(-30)"/><rect class="cls-2" x="182.34" y="79.12" width="19" height="79.61" transform="matrix(0.87, -0.5, 0.5, 0.87, -33.76, 111.86)"/><rect class="cls-1" x="216.97" y="36.77" width="6" height="130.43" transform="translate(-21.52 123.7) rotate(-30.01)"/><rect class="cls-1" x="46.01" y="179.47" width="49" height="17.88" transform="translate(-84.76 60.5) rotate(-30)"/><polygon class="cls-1" points="193.71 246.5 187.63 250.03 143.71 173.56 149.79 170.03 193.71 246.5"/><polygon class="cls-1" points="102.32 246.5 108.4 250.03 152.32 173.56 146.24 170.03 102.32 246.5"/><rect class="cls-1" x="94.17" y="244.07" width="23.79" height="11.92"/><rect class="cls-1" x="177.9" y="244.07" width="23.79" height="11.92"/><circle class="cls-3" cx="147.93" cy="174.28" r="19.5"/><rect class="cls-4" x="200.42" y="68.47" width="19" height="79.61" transform="translate(-26.01 119.47) rotate(-30)"/></g></svg>