<svg xmlns="http://www.w3.org/2000/svg" viewBox="0 0 300 300"><defs><style>.cls-1{fill:#1f63aa;}</style></defs><title>watson</title><g id="Layer_2" data-name="Layer 2"><g id="Lockup"><path id="Avatar_Flat" data-name="Avatar Flat" class="cls-1" d="M53.08,127.93a5.79,5.79,0,0,1-2.46-.62l-24-13.85c-2.46-1.23-3.08-4.31-1.85-6.77,1.54-2.46,4.62-3.38,6.77-1.85l24,13.85c2.46,1.23,3.08,4.31,1.85,6.77A4.57,4.57,0,0,1,53.08,127.93ZM96.46,86.7c2.46-1.23,3.08-4.31,1.85-6.77L84.46,55.62c-1.23-2.46-4.31-3.08-6.77-1.85s-3.08,4.31-1.85,6.77l13.85,24A4.91,4.91,0,0,0,94,87,3.27,3.27,0,0,0,96.46,86.7Zm58.46-19.38V39.62a4.92,4.92,0,1,0-9.85,0V67.31a4.92,4.92,0,1,0,9.85,0ZM210,84.85l13.85-24c1.23-2.46.62-5.54-1.85-6.77s-5.54-.62-6.77,1.85l-13.85,24c-1.54,2.15-.62,5.23,1.85,6.77a7.24,7.24,0,0,0,2.46.62A4.91,4.91,0,0,0,210,84.85Zm39.38,42.46,24-13.85c2.46-1.23,3.08-4.31,1.85-6.77s-4.31-3.08-6.77-1.85l-24,13.85c-2.46,1.23-3.08,4.31-1.85,6.77a4.91,4.91,0,0,0,4.31,2.46A4.13,4.13,0,0,0,249.38,127.31Zm-95.08-36a87,87,0,0,0-25.85,4.31c-.62.31-1.23.62-1.23.92a1,1,0,0,0,.92.92,15.62,15.62,0,0,0,2.77-.62,72.21,72.21,0,0,1,15.38-1.23,70.06,70.06,0,0,1,24.92,4.62c-32.31,12.31-64.62,57.23-75.69,97.54-12-13.23-19.38-28.31-19.38-42.15,0-23.69,19.38-37.85,47.38-37.85h2.15c.62,0,.62-.62.62-.92a.82.82,0,0,0-.92-.92,69.24,69.24,0,0,0-10.77-.92C86.31,115,66,129.46,66,155.62c0,17.85,10.46,36.92,26.77,53.54a100.65,100.65,0,0,0-1.54,16.31,88.73,88.73,0,0,0,.92,10.77c-9.85-8.62-17.23-19.08-21.23-29.54A60,60,0,0,1,68.15,199c-.31-.92-.62-.92-1.23-.92A.82.82,0,0,0,66,199c0,.62.31,2.46.31,3.08,5.85,29.54,35.08,67.08,83.38,67.08,53.23,0,89.85-44,89.85-89.85C239.85,131.62,203.54,91.31,154.31,91.31ZM149.69,259a81.73,81.73,0,0,1-37.85-9.54c-8.31-4.62-10.77-12.92-10.77-23.08,0-3.08.31-6.15.62-9.23C122.92,235,150.92,247,179.23,247a61.32,61.32,0,0,0,17.23-2.46h0A82.49,82.49,0,0,1,149.69,259Zm29.23-21.85c-26.77,0-55.08-13.23-75.08-31.08,10.46-46.46,52.31-98.15,79.38-98.15,3.08,0,5.54.62,9.23,2.77a86.81,86.81,0,0,1,14.15,11.08,81.24,81.24,0,0,1,24,57.54c0,19.69-6.77,34.77-13.85,44C208.46,233.16,194,237.16,178.92,237.16Z"/></g></g></svg>