<svg xmlns="http://www.w3.org/2000/svg" viewBox="0 0 300 300"><defs><style>.cls-1{fill:#783938;}</style></defs><title>watson</title><g id="Layer_2" data-name="Layer 2"><g id="Lockup"><path id="Avatar_Flat" data-name="Avatar Flat" class="cls-1" d="M53.08,127.93a5.71,5.71,0,0,1-2.46-.62l-24-13.85c-2.47-1.23-3.08-4.3-1.85-6.76,1.54-2.47,4.61-3.39,6.77-1.85l24,13.85c2.46,1.23,3.08,4.3,1.84,6.76A4.57,4.57,0,0,1,53.08,127.93ZM96.46,86.7a5,5,0,0,0,1.85-6.77L84.46,55.62c-1.23-2.46-4.31-3.08-6.77-1.85s-3.07,4.31-1.84,6.77l13.84,24A4.91,4.91,0,0,0,94,87,3.29,3.29,0,0,0,96.46,86.7Zm58.46-19.39V39.62a4.92,4.92,0,1,0-9.84,0V67.31a4.92,4.92,0,1,0,9.84,0ZM210,84.85l13.85-24c1.23-2.46.61-5.54-1.85-6.77s-5.54-.62-6.77,1.85l-13.85,24c-1.53,2.15-.61,5.23,1.85,6.77a7.4,7.4,0,0,0,2.46.61A4.9,4.9,0,0,0,210,84.85Zm39.38,42.46,24-13.85c2.47-1.23,3.08-4.3,1.85-6.76s-4.31-3.08-6.77-1.85l-24,13.85c-2.46,1.23-3.08,4.3-1.84,6.76a4.91,4.91,0,0,0,4.3,2.47A4.1,4.1,0,0,0,249.38,127.31Zm-95.07-36a86.86,86.86,0,0,0-25.85,4.31c-.61.31-1.23.61-1.23.92a1,1,0,0,0,.92.92,15.19,15.19,0,0,0,2.77-.61,72.41,72.41,0,0,1,15.39-1.23,70.19,70.19,0,0,1,24.92,4.61c-32.31,12.31-64.61,57.23-75.69,97.54-12-13.23-19.39-28.31-19.39-42.15,0-23.69,19.39-37.85,47.39-37.85h2.15c.62,0,.62-.61.62-.92a.81.81,0,0,0-.93-.92,68.58,68.58,0,0,0-10.76-.93C86.31,115,66,129.46,66,155.62c0,17.84,10.46,36.92,26.77,53.54a100.9,100.9,0,0,0-1.54,16.3,89.48,89.48,0,0,0,.92,10.77c-9.84-8.61-17.23-19.07-21.23-29.53a61,61,0,0,1-2.77-7.7c-.3-.92-.61-.92-1.23-.92A.82.82,0,0,0,66,199c0,.62.31,2.46.31,3.08,5.84,29.54,35.07,67.08,83.38,67.08,53.23,0,89.85-44,89.85-89.85C239.85,131.62,203.54,91.31,154.31,91.31ZM149.69,259a81.61,81.61,0,0,1-37.84-9.54c-8.31-4.61-10.77-12.92-10.77-23.07a92.07,92.07,0,0,1,.61-9.23C122.92,235,150.92,247,179.23,247a61.28,61.28,0,0,0,17.23-2.46h0A82.48,82.48,0,0,1,149.69,259Zm29.23-21.84c-26.77,0-55.07-13.23-75.07-31.08,10.46-46.46,52.3-98.15,79.38-98.15,3.08,0,5.54.61,9.23,2.77a86.6,86.6,0,0,1,14.16,11.07,81.28,81.28,0,0,1,24,57.54c0,19.69-6.77,34.77-13.85,44C208.46,233.16,194,237.16,178.92,237.16Z"/></g></g></svg>