<svg xmlns="http://www.w3.org/2000/svg" viewBox="0 0 300 300"><defs><style>.cls-1{fill:#783938;}.cls-2{fill:#fff;stroke:#fff;stroke-width:0.25px;}</style></defs><title>kubernetes</title><g id="Layer_2" data-name="Layer 2"><g id="layer1"><g id="g3052"><path id="path3055" class="cls-1" d="M149.31,54a13.43,13.43,0,0,0-5.1,1.29L74.68,88.55a13.2,13.2,0,0,0-7.19,9L50.33,172.12a13.08,13.08,0,0,0,1.81,10.11c.23.36.49.71.75,1.05L101,243.12a13.36,13.36,0,0,0,10.4,5l77.17,0a13.33,13.33,0,0,0,10.4-4.95l48.11-59.85a13.12,13.12,0,0,0,2.57-11.16L232.49,97.48a13.24,13.24,0,0,0-7.2-9l-69.54-33.2A13.37,13.37,0,0,0,149.31,54Z"/><path id="path3059" class="cls-2" d="M150,79.43a4.42,4.42,0,0,0-4.16,4.63s0,.08,0,.11c0,.35,0,.77,0,1.07a37,37,0,0,0,.57,4,39.81,39.81,0,0,1,.47,7.55,4.57,4.57,0,0,1-1.36,2.15l-.09,1.76a54.68,54.68,0,0,0-7.53,1.16,53.54,53.54,0,0,0-27.19,15.53c-.46-.31-1.26-.89-1.5-1.07a3.26,3.26,0,0,1-2.48-.24,39.34,39.34,0,0,1-5.61-5.06,35.08,35.08,0,0,0-2.73-2.91c-.26-.22-.65-.52-.93-.74a4.88,4.88,0,0,0-2.9-1.09,4,4,0,0,0-3.32,1.46,4.42,4.42,0,0,0,1,6.14l.06,0c.27.23.61.51.86.7a37.63,37.63,0,0,0,3.45,2,39,39,0,0,1,6.19,4.34,4.73,4.73,0,0,1,.84,2.41l1.33,1.19a53.86,53.86,0,0,0-8.49,37.54l-1.74.51a5.8,5.8,0,0,1-1.79,1.8,38,38,0,0,1-7.46,1.23,35.07,35.07,0,0,0-4,.32c-.31.06-.76.18-1.11.26h-.09a4.18,4.18,0,1,0,1.85,8.11h.06l.08,0c.34-.08.77-.16,1.07-.24a34.21,34.21,0,0,0,3.74-1.43,38.58,38.58,0,0,1,7.25-2.14,4.68,4.68,0,0,1,2.4.85l1.81-.31a54.15,54.15,0,0,0,24,30l-.75,1.82a4.07,4.07,0,0,1,.36,2.35,40.42,40.42,0,0,1-3.76,6.77,33.26,33.26,0,0,0-2.23,3.33c-.17.31-.38.79-.54,1.12a4.18,4.18,0,1,0,7.52,3.56h0c.15-.33.38-.76.51-1.06a33.48,33.48,0,0,0,1.2-3.82c1.1-2.76,1.71-5.67,3.22-7.47a3.4,3.4,0,0,1,1.8-.88l.94-1.7a53.72,53.72,0,0,0,38.41.09c.26.47.75,1.38.88,1.6a3.34,3.34,0,0,1,2.13,1.29,38.85,38.85,0,0,1,2.85,7,35.7,35.7,0,0,0,1.21,3.82c.14.3.36.74.52,1.06a4.18,4.18,0,1,0,7.52-3.55c-.16-.33-.37-.81-.54-1.12a34.89,34.89,0,0,0-2.23-3.32,38.74,38.74,0,0,1-3.69-6.61,3.21,3.21,0,0,1,.32-2.45,12.59,12.59,0,0,1-.69-1.68,54.19,54.19,0,0,0,24-30.18c.53.08,1.47.25,1.77.31a3.27,3.27,0,0,1,2.33-.86,38.35,38.35,0,0,1,7.26,2.13,34.84,34.84,0,0,0,3.73,1.44c.31.08.74.16,1.08.23l.08,0h.06a4.18,4.18,0,1,0,1.85-8.11c-.35-.08-.86-.22-1.21-.29a37.13,37.13,0,0,0-4-.32,38,38,0,0,1-7.46-1.23,4.67,4.67,0,0,1-1.8-1.8l-1.68-.49a54,54,0,0,0-8.67-37.45c.43-.4,1.25-1.12,1.48-1.33a3.32,3.32,0,0,1,.78-2.36,39,39,0,0,1,6.19-4.34,36.46,36.46,0,0,0,3.46-2c.27-.2.63-.51.92-.74a4.19,4.19,0,1,0-5.19-6.51c-.28.23-.67.52-.92.74a33.78,33.78,0,0,0-2.75,2.91,38.93,38.93,0,0,1-5.61,5.07,4.67,4.67,0,0,1-2.53.28l-1.58,1.13a54.49,54.49,0,0,0-34.55-16.69c0-.56-.08-1.56-.09-1.86a3.29,3.29,0,0,1-1.37-2.08,39.08,39.08,0,0,1,.48-7.55,37,37,0,0,0,.57-4c0-.33,0-.82,0-1.18A4.42,4.42,0,0,0,150,79.43Zm-5.21,32.28-1.23,21.83-.09.05a3.68,3.68,0,0,1-5.83,2.81l0,0-17.9-12.69a43.33,43.33,0,0,1,25.08-12Zm10.43,0a43.29,43.29,0,0,1,24.94,12l-17.79,12.61-.06,0a3.66,3.66,0,0,1-5-.68,3.57,3.57,0,0,1-.8-2.12h0Zm-42,20.17,16.34,14.62,0,.09a3.66,3.66,0,0,1,.47,5,3.72,3.72,0,0,1-1.91,1.26V153l-21,6A42.91,42.91,0,0,1,113.21,131.88Zm73.46,0a43.71,43.71,0,0,1,6.27,27.05l-21.06-6.06,0-.09a3.68,3.68,0,0,1-2.6-4.36,3.64,3.64,0,0,1,1.16-2v0l16.26-14.55Zm-40,15.74h6.7l4.16,5.2L156,159.32l-6,2.89-6-2.89-1.5-6.5Zm21.47,17.8a3.37,3.37,0,0,1,.84.07l0-.05,21.67,3.66a42.93,42.93,0,0,1-17.35,21.8l-8.41-20.32,0,0a3.68,3.68,0,0,1,1.78-4.76,3.79,3.79,0,0,1,1.41-.37Zm-36.4.09a3.66,3.66,0,0,1,3.52,2.86,3.61,3.61,0,0,1-.2,2.26l.06.08-8.32,20.11a43.12,43.12,0,0,1-17.3-21.64L131,165.54l0,0a4.46,4.46,0,0,1,.72-.06Zm18.15,8.81a3.64,3.64,0,0,1,1.72.37,3.6,3.6,0,0,1,1.64,1.56h.08l10.59,19.14a43.84,43.84,0,0,1-4.23,1.18,43,43,0,0,1-23.48-1.21l10.56-19.1h0A3.68,3.68,0,0,1,149.86,174.33Z"/></g></g></g></svg>